# xmcd CD database file
#
# Track frame offsets:
#	150
#	18483
#	37045
#	56148
#	89796
#	116620
#	132314
#	149867
#	172510
#	205158
#	235837
#	268711
#
# Disc length: 3999 seconds
#
# Revision: 2
# Processed by: cddbd v1.5.1PL2 Copyright (c) Steve Scherf et al.
# Submitted via: CdAid (MTCDDB.DLL V2003.12.21)
#
DISCID=b30f9d0c
DTITLE=Albert King - The best of
DYEAR=1998
DGENRE=Blues
TTITLE0=I´m ready
TTITLE1=Love shock
TTITLE2=Cold women with warm heart
TTITLE3=Sensation, comunication together
TTITLE4=Angel of mercy
TTITLE5=Rub me back
TTITLE6=My babe
TTITLE7=Nobody want a loser
TTITLE8=Ain´t nothing you can do
TTITLE9=I´ll play the blues for you
TTITLE10=Stormy monday
TTITLE11=Kansas city
EXTD=ID3G:   0 YEAR: 1998
EXTT0=
EXTT1=
EXTT2=
EXTT3=
EXTT4=
EXTT5=
EXTT6=
EXTT7=
EXTT8=
EXTT9=
EXTT10=
EXTT11=
PLAYORDER=
